# xmcd
#
# Track frame offsets:
#	150
#	20728
#	40220
#	58527
#	79091
#	93985
#	112599
#	130711
#	148545
#	164595
#	184532
#
# Disc length: 2664 seconds
#
# Revision: 6
# Processed by: cddbd v1.5.2PL0 Copyright (c) Steve Scherf et al.
# Submitted via: EasyCDDAExtractor 11.0.0.1
#
DISCID=860a660b
DTITLE=ΣΑΜΙΟΥ ΑΝΤΖΥ - ΑΝΤΖΥ
DYEAR=2001
DGENRE=ΛΑΪΚΑ
TTITLE0=ΛΑΘΟΣ ΣΟΥ
TTITLE1=ΤΟ ΖΗΤΙΑΝΑΚΙ
TTITLE2=ΜΑ ΑΝ ΦΥΓΕΙΣ
TTITLE3=ΣΗΜΕΙΟ ΑΝΑΦΟΡΑΣ
TTITLE4=ΜΙΑ ΚΑΙ ΚΑΛΗ
TTITLE5=ΠΟΙΟΣ
TTITLE6=ΞΕΦΥΓΑΜΕ
TTITLE7=ΠΙΝΩ ΚΑΙ ΜΕΘΩ
TTITLE8=ΔΕΝ ΞΕΧΝΙΕΣΑΙ
TTITLE9=ΚΑΝΕΙΣ ΔΕΝ ΕΙΝΑΙ ΚΑΝΕΝΟΣ
TTITLE10=ΠΕΣ ΜΟΥ ΤΙ
EXTD=YEAR: 2001 ID3G: 84
EXTT0=
EXTT1=
EXTT2=
EXTT3=
EXTT4=
EXTT5=
EXTT6=
EXTT7=
EXTT8=
EXTT9=
EXTT10=
PLAYORDER=
